<svg xmlns="http://www.w3.org/2000/svg" viewBox="0 0 1280 800">
  <!-- Browser Chrome -->
  <rect width="1280" height="800" fill="#1a1a2e"/>
  
  <!-- Browser Top Bar -->
  <rect width="1280" height="40" fill="#2d2d44"/>
  <circle cx="20" cy="20" r="6" fill="#ff5f57"/>
  <circle cx="40" cy="20" r="6" fill="#febc2e"/>
  <circle cx="60" cy="20" r="6" fill="#28c840"/>
  <rect x="100" y="10" width="400" height="20" rx="4" fill="#1a1a2e"/>
  <text x="120" y="25" font-family="Arial" font-size="12" fill="#888">youtube.com/watch?v=...</text>
  
  <!-- YouTube Area (left side) -->
  <rect x="0" y="40" width="920" height="760" fill="#0f0f0f"/>
  
  <!-- Video Player Area -->
  <rect x="20" y="60" width="880" height="495" fill="#000" rx="8"/>
  <text x="460" y="320" font-family="Arial" font-size="48" fill="#333" text-anchor="middle">▶</text>
  
  <!-- Video Title -->
  <text x="20" y="590" font-family="Arial" font-size="20" fill="#fff" font-weight="bold">Bohemian Rhapsody - Queen</text>
  <text x="20" y="615" font-family="Arial" font-size="14" fill="#aaa">Queen Official • 1.2B views • 6 years ago</text>
  
  <!-- LyricsIO Panel -->
  <rect x="930" y="50" width="340" height="700" rx="12" fill="#1e1e2e"/>
  
  <!-- Panel Header -->
  <rect x="930" y="50" width="340" height="50" rx="12" fill="#252536"/>
  <circle cx="960" cy="75" r="15" fill="#ff6b6b"/>
  <polygon points="955,68 955,82 968,75" fill="white"/>
  <text x="985" y="82" font-family="Arial" font-size="18" fill="#ff6b6b" font-weight="bold">LyricsIO</text>
  
  <!-- Header buttons -->
  <text x="1200" y="80" font-family="Arial" font-size="16" fill="#666">↻</text>
  <text x="1225" y="80" font-family="Arial" font-size="16" fill="#666">−</text>
  <text x="1250" y="80" font-family="Arial" font-size="16" fill="#666">×</text>
  
  <!-- Song Title in Panel -->
  <text x="950" y="130" font-family="Arial" font-size="12" fill="#888">Bohemian Rhapsody - Queen</text>
  
  <!-- Lyrics Title -->
  <text x="950" y="170" font-family="Arial" font-size="18" fill="#fff">🎵 Bohemian Rhapsody</text>
  
  <!-- Lyrics Content -->
  <text x="950" y="210" font-family="Arial" font-size="14" fill="#ccc">Is this the real life?</text>
  <text x="950" y="235" font-family="Arial" font-size="14" fill="#ccc">Is this just fantasy?</text>
  <text x="950" y="260" font-family="Arial" font-size="14" fill="#ccc">Caught in a landslide</text>
  <text x="950" y="285" font-family="Arial" font-size="14" fill="#ccc">No escape from reality</text>
  <text x="950" y="320" font-family="Arial" font-size="14" fill="#ccc">Open your eyes</text>
  <text x="950" y="345" font-family="Arial" font-size="14" fill="#ccc">Look up to the skies and see</text>
  <text x="950" y="380" font-family="Arial" font-size="14" fill="#ccc">I'm just a poor boy</text>
  <text x="950" y="405" font-family="Arial" font-size="14" fill="#ccc">I need no sympathy</text>
  <text x="950" y="440" font-family="Arial" font-size="14" fill="#ccc">Because I'm easy come, easy go</text>
  <text x="950" y="465" font-family="Arial" font-size="14" fill="#ccc">Little high, little low</text>
  <text x="950" y="500" font-family="Arial" font-size="14" fill="#ccc">Any way the wind blows</text>
  <text x="950" y="525" font-family="Arial" font-size="14" fill="#ccc">Doesn't really matter to me</text>
  <text x="950" y="550" font-family="Arial" font-size="14" fill="#ccc">To me...</text>
  
  <!-- Source indicator -->
  <text x="950" y="600" font-family="Arial" font-size="12" fill="#888">— Source: LRCLIB (verified)</text>
  
  <!-- Bottom Buttons -->
  <defs>
    <linearGradient id="btnGrad" x1="0%" y1="0%" x2="100%" y2="0%">
      <stop offset="0%" style="stop-color:#ff6b6b"/>
      <stop offset="100%" style="stop-color:#ff8e53"/>
    </linearGradient>
  </defs>
  <rect x="945" y="640" width="100" height="36" rx="6" fill="url(#btnGrad)"/>
  <text x="965" y="663" font-family="Arial" font-size="11" fill="white">🎤 AI Generate</text>
  
  <rect x="1055" y="640" width="60" height="36" rx="6" fill="#333"/>
  <text x="1070" y="663" font-family="Arial" font-size="12" fill="#ccc">Online</text>
  
  <rect x="1125" y="640" width="60" height="36" rx="6" fill="#333" opacity="0.5"/>
  <text x="1135" y="663" font-family="Arial" font-size="11" fill="#666">🎤 AI</text>
  
  <rect x="1195" y="640" width="65" height="36" rx="6" fill="none" stroke="#ff6b6b" stroke-width="2"/>
  <text x="1205" y="663" font-family="Arial" font-size="11" fill="#ff6b6b">📤 Publish</text>
  
  <!-- Powered by AI -->
  <text x="1100" y="720" font-family="Arial" font-size="11" fill="#666" text-anchor="middle">Powered by AI</text>
</svg>
